<?xml version="1.0" encoding="UTF-8"?><svg id="Layer_1" xmlns="http://www.w3.org/2000/svg" viewBox="0 0 1720 1080"><defs><style>.cls-1{fill:#128807;}.cls-2{fill:#f93;}.cls-3{fill:#2e3191;}.cls-4{fill:#6b382b;}.cls-5{fill:#bc3500;}.cls-6{fill:#ff6724;}.cls-7{fill:#ba5800;}.cls-8{fill:#fff;stroke:#000;stroke-miterlimit:10;}</style></defs><g><path class="cls-2" d="M192.39,877.27v-2.45c4.11-.21,7.42-.8,9.94-1.75,2.51-.96,4.73-2.43,6.64-4.41,2.27-2.27,3.79-5.14,4.57-8.61,.78-3.47,1.17-8.86,1.17-16.16v-78.34c0-7.3-.39-12.69-1.17-16.16s-2.3-6.34-4.57-8.61c-1.91-2.06-4.15-3.54-6.7-4.47-2.55-.92-5.85-1.49-9.89-1.7v-2.45h69.84c7.09,0,11.73,.07,13.93,.21,8.08,.64,14.78,2.55,20.09,5.74,4.61,2.84,8.17,6.56,10.68,11.16,2.51,4.61,3.77,9.78,3.77,15.52,0,9.29-2.87,16.9-8.61,22.86-2.06,2.2-4.39,4.02-7.02,5.48-2.62,1.45-6.42,3.07-11.37,4.84,6.8,1.13,12.08,2.37,15.84,3.72s7.16,3.22,10.21,5.63c4.53,3.69,8.06,8.28,10.58,13.77,2.51,5.49,3.77,11.43,3.77,17.8s-1.29,12.35-3.88,17.7c-2.59,5.35-6.18,9.66-10.79,12.92-4.18,2.91-9.16,4.92-14.94,6.06-5.78,1.13-13.91,1.7-24.4,1.7h-77.69Zm45.6-141.81v63.14h8.61c4.04,0,8.22-.28,12.54-.85,3.76-.57,6.78-1.24,9.09-2.02,2.3-.78,4.41-1.84,6.33-3.19,3.61-2.69,6.39-6.15,8.34-10.36,1.95-4.22,2.92-8.88,2.92-13.98,0-5.38-1.01-10.5-3.03-15.36-2.02-4.85-4.7-8.63-8.03-11.32-2.91-2.34-6.22-3.93-9.94-4.78-3.72-.85-9.37-1.28-16.96-1.28h-9.87Zm0,66.44v43.8c0,5.32,.37,9.6,1.12,12.86,.74,3.26,1.97,6.03,3.67,8.29,3.61,4.75,9.81,7.12,18.6,7.12,11.41,0,20.43-3.12,27.05-9.35,6.63-6.23,9.94-14.74,9.94-25.51,0-6.17-1.03-11.89-3.08-17.17-2.06-5.28-4.82-9.34-8.29-12.17-6.38-5.24-16.37-7.87-29.98-7.87h-19.03Z"/><path class="cls-2" d="M369.9,727.92v72.8c2.48-3.04,4.68-5.41,6.59-7.11s4.21-3.19,6.91-4.46c5.17-2.55,11.06-3.82,17.65-3.82,8.36,0,15.27,1.66,20.73,4.99,3.9,2.48,6.57,5.5,8.03,9.08,1.45,3.58,2.18,8.94,2.18,16.09v31l.11,8.07c0,4.81,.28,8.34,.85,10.56,.57,2.23,1.66,4.09,3.3,5.57,1.98,1.91,5.63,3.36,10.95,4.35v2.23h-46.95v-2.23c3.75-.5,6.41-1.1,8.01-1.8,1.59-.71,3.02-1.91,4.3-3.61,1.27-1.77,2.16-4.18,2.65-7.22s.74-7.54,.74-13.48v-33.66c0-5.09-.39-9.13-1.17-12.1s-2.09-5.56-3.92-7.75c-3.61-4.18-8.7-6.26-15.27-6.26-17.11,0-25.67,13.52-25.67,40.56v16.99l.11,7.86c0,4.81,.28,8.34,.85,10.57s1.66,4.09,3.29,5.57c1.98,1.91,5.62,3.36,10.92,4.35v2.23h-46.95v-2.23c4.25-.56,7.3-1.36,9.14-2.39,1.84-1.03,3.33-2.78,4.46-5.25,.78-1.63,1.33-4.09,1.65-7.38s.48-8.05,.48-14.28v-83.32c0-7.22-.18-12.31-.53-15.29-.36-2.97-1.14-5.38-2.34-7.22-1.21-1.98-2.66-3.4-4.36-4.24s-4.15-1.38-7.34-1.59v-2.34l30.62-3.83h-.02Z"/><path class="cls-2" d="M546.76,866.96l1.81,1.06c-2.55,7.44-8.4,11.16-17.54,11.16-5.04,0-9.23-1.24-12.56-3.72-2.2-1.63-4.47-4.47-6.81-8.5-4.76,4.25-8.34,7.05-10.75,8.4-4.61,2.55-9.97,3.83-16.07,3.83-7.81,0-14-1.88-18.58-5.63-4.58-3.76-6.87-8.82-6.87-15.2,0-5.88,1.88-10.81,5.63-14.77,2.13-2.2,4.57-3.95,7.34-5.26,2.76-1.31,6.77-2.64,12.01-3.99,6.17-1.56,10.72-2.87,13.66-3.93s5.4-2.34,7.39-3.83c2.27-1.63,3.83-3.54,4.68-5.74s1.28-5.24,1.28-9.14c0-8.29-1.56-14.35-4.68-18.18-1.42-1.77-3.24-3.19-5.47-4.25s-4.55-1.6-6.96-1.6c-2.91,0-5.49,.74-7.76,2.23-2.27,1.49-3.97,3.54-5.1,6.17l-2.66,6.17c-1.42,3.33-3.97,5-7.65,5-2.41,0-4.43-.8-6.06-2.39s-2.44-3.6-2.44-6.01c0-3.61,2.56-6.66,7.67-9.14,2.77-1.28,6.19-2.32,10.27-3.14,4.08-.81,8.07-1.22,11.98-1.22,4.4,0,8.98,.57,13.74,1.7,4.76,1.13,8.73,2.59,11.93,4.36,4.61,2.62,7.49,6.02,8.62,10.2,.57,2.13,.85,5.7,.85,10.74v39.33c0,6.66,.28,11.2,.85,13.61,1.2,5.03,4.11,7.55,8.72,7.55,2.2,0,3.92-.39,5.16-1.17,1.24-.78,2.71-2.34,4.41-4.68l-.04-.02Zm-35.19-41.88c-3.82,3.19-8.02,5.99-12.61,8.4-5.16,2.76-8.73,4.85-10.7,6.27-1.98,1.42-3.78,3.12-5.4,5.1-3.32,4.11-4.98,8.89-4.98,14.35,0,4.68,1.29,8.54,3.87,11.59,2.58,3.05,5.85,4.57,9.8,4.57,3.46,0,6.73-1.08,9.8-3.24s5.39-5.05,6.94-8.66c2.19-4.75,3.29-11.62,3.29-20.62v-17.75h0Z"/><path class="cls-2" d="M590.75,801.68c2.55-4.46,5.42-7.82,8.61-10.09,5.88-4.18,12.58-6.27,20.09-6.27,4.61,0,8.11,1.03,10.52,3.08,2.2,1.84,3.3,4.1,3.3,6.8,0,1.98-.66,3.61-1.97,4.89s-2.99,1.91-5.05,1.91c-2.41,0-4.5-.99-6.27-2.97l-3.29-3.61c-2.62-2.76-5.71-4.14-9.25-4.14-4.82,0-8.58,3.11-11.27,9.34-2.69,6.23-4.04,14.9-4.04,26.01v19.86l.11,8.07c0,4.81,.28,8.33,.85,10.56,.57,2.23,1.66,4.09,3.29,5.57,1.98,1.91,5.63,3.36,10.95,4.35v2.23h-46.99v-2.23c4.25-.56,7.3-1.35,9.14-2.38,1.84-1.02,3.33-2.77,4.46-5.24,.78-1.62,1.33-4.07,1.65-7.35,.32-3.28,.48-8.02,.48-14.23v-26.12c0-7.26-.18-12.36-.53-15.28-.36-2.93-1.14-5.31-2.34-7.14-1.21-1.97-2.66-3.4-4.36-4.28s-4.15-1.43-7.34-1.64v-2.23l27.4-3.83c1.22,6.36,1.83,11.82,1.83,16.36h.02Z"/><path class="cls-2" d="M675.24,786.92h27v4.04h-27v61.87c0,7.44,1.27,12.76,3.82,15.94,1.34,1.77,3.11,3.15,5.3,4.15,2.19,.99,4.56,1.49,7.1,1.49,3.18,0,5.83-.65,7.95-1.97,2.12-1.31,4.45-3.7,6.99-7.18l1.59,1.38c-2.34,4.25-5.62,7.41-9.83,9.46-4.22,2.06-9.48,3.08-15.79,3.08-8.36,0-14.46-1.63-18.28-4.89-2.06-1.7-3.4-3.74-4.04-6.11-.64-2.37-.96-6.64-.96-12.81v-64.42h-11.37v-1.7c4.61-1.49,8.86-4.36,12.77-8.61,2.35-2.62,4.24-5.22,5.67-7.81s2.78-5.93,4.07-10.05l1.07-3.51h3.96v27.64h-.02Z"/><path class="cls-2" d="M726.45,789.15l30.62-3.83v61.23l.11,8.05c0,4.8,.28,8.32,.85,10.54,.57,2.22,1.66,4.08,3.29,5.56,1.98,1.91,5.63,3.35,10.95,4.34v2.23h-46.99v-2.23c4.25-.56,7.3-1.35,9.14-2.38,1.84-1.02,3.33-2.77,4.46-5.24,.78-1.62,1.33-4.07,1.65-7.35,.32-3.28,.48-8.02,.48-14.23v-26.12c0-7.26-.18-12.36-.53-15.28-.36-2.93-1.14-5.31-2.34-7.14-1.21-1.97-2.66-3.4-4.36-4.28s-4.15-1.43-7.34-1.64v-2.23h.01Zm22.16-41.99c-2.78,0-5.08-.89-6.89-2.66-1.82-1.77-2.73-4-2.73-6.7s.93-4.84,2.78-6.64c1.85-1.81,4.13-2.71,6.84-2.71s4.99,.9,6.84,2.71c1.85,1.81,2.78,4.02,2.78,6.64s-.91,4.92-2.73,6.7c-1.82,1.77-4.12,2.66-6.89,2.66h0Z"/><path class="cls-2" d="M785.76,786.92h41.24v2.34c-2.91,.42-5,.99-6.27,1.7-2.76,1.56-4.15,3.96-4.15,7.22,0,2.83,1.44,7.89,4.34,15.18l17.77,45.53,15.52-38.32c3.83-9.55,5.74-16.31,5.74-20.27,0-3.18-.89-5.71-2.66-7.59-1.77-1.88-4.36-3.03-7.76-3.45v-2.34h30.4v2.34c-3.05,.85-5.3,1.74-6.75,2.66s-2.85,2.37-4.2,4.36c-2.06,3.12-5.32,10.1-9.78,20.94l-30.83,74.84c-3.69,8.93-6.66,14.74-8.93,17.43-3.83,4.46-8.68,6.7-14.56,6.7-3.76,0-6.79-.73-9.09-2.18-2.3-1.45-3.45-3.35-3.45-5.69,0-1.84,.67-3.31,2.01-4.41s3.11-1.65,5.3-1.65c1.84,0,3.96,.5,6.36,1.49,2.33,.92,3.83,1.49,4.5,1.7s1.47,.32,2.39,.32c4.38,0,7.95-3.31,10.7-9.92l3.29-8.11c1.41-3.42,2.12-6.05,2.12-7.9,0-2.62-1.34-7.19-4.02-13.7l-22.03-52.98-3.18-7.64c-1.91-4.53-3.4-7.75-4.46-9.66s-2.13-3.29-3.19-4.14c-1.77-1.35-3.9-2.16-6.38-2.44v-2.36Z"/><path class="cls-2" d="M978.79,866.96l1.81,1.06c-2.55,7.44-8.4,11.16-17.54,11.16-5.04,0-9.23-1.24-12.56-3.72-2.2-1.63-4.47-4.47-6.81-8.5-4.76,4.25-8.34,7.05-10.75,8.4-4.62,2.55-9.97,3.83-16.08,3.83-7.81,0-14-1.88-18.58-5.63-4.58-3.76-6.87-8.82-6.87-15.2,0-5.88,1.88-10.81,5.63-14.77,2.13-2.2,4.57-3.95,7.34-5.26,2.76-1.31,6.77-2.64,12.01-3.99,6.17-1.56,10.72-2.87,13.66-3.93s5.4-2.34,7.39-3.83c2.27-1.63,3.83-3.54,4.68-5.74s1.28-5.24,1.28-9.14c0-8.29-1.56-14.35-4.68-18.18-1.42-1.77-3.24-3.19-5.48-4.25s-4.55-1.6-6.96-1.6c-2.91,0-5.49,.74-7.76,2.23s-3.97,3.54-5.1,6.17l-2.66,6.17c-1.42,3.33-3.97,5-7.65,5-2.41,0-4.43-.8-6.06-2.39s-2.44-3.6-2.44-6.01c0-3.61,2.55-6.66,7.67-9.14,2.77-1.28,6.19-2.32,10.27-3.14,4.08-.81,8.07-1.22,11.98-1.22,4.4,0,8.98,.57,13.74,1.7s8.73,2.59,11.93,4.36c4.61,2.62,7.49,6.02,8.62,10.2,.57,2.13,.85,5.7,.85,10.74v39.33c0,6.66,.28,11.2,.85,13.61,1.21,5.03,4.11,7.55,8.72,7.55,2.2,0,3.92-.39,5.16-1.17,1.24-.78,2.71-2.34,4.41-4.68l-.02-.02Zm-35.19-41.88c-3.81,3.19-8.02,5.99-12.61,8.4-5.16,2.76-8.72,4.85-10.7,6.27-1.98,1.42-3.78,3.12-5.4,5.1-3.32,4.11-4.98,8.89-4.98,14.35,0,4.68,1.29,8.54,3.87,11.59,2.58,3.05,5.85,4.57,9.8,4.57,3.46,0,6.73-1.08,9.8-3.24s5.39-5.05,6.94-8.66c2.19-4.75,3.29-11.62,3.29-20.62v-17.75h0Z"/></g><path class="cls-1" d="M1059.62,803.29l44.97-44.65c4.46-4.39,7.24-7.39,8.34-8.98,1.1-1.59,1.65-3.35,1.65-5.26,0-3.47-1.7-6.09-5.1-7.87-1.77-.85-4.75-1.49-8.93-1.91v-2.45h45.82v2.45c-3.12,.28-5.72,.8-7.81,1.54-2.09,.75-4.38,2-6.86,3.78-2.76,1.98-7.51,6.2-14.24,12.65l-34.44,33.06,49,62.51,6.06,7.76c4.47,5.53,9.11,9.85,13.93,12.97,2.91,1.91,5.46,3.28,7.65,4.09,2.2,.82,4.96,1.44,8.29,1.86v2.45h-70.26v-2.45c5.31-.42,9.14-1.31,11.48-2.66s3.51-3.33,3.51-5.95c0-2.83-1.45-6.45-4.36-10.84-1.42-2.13-4.07-5.81-7.97-11.05s-7.19-9.49-9.89-12.76l-23.92-29.66-6.91,6.8v35.18c0,7.23,.41,12.6,1.22,16.11,.81,3.51,2.32,6.4,4.52,8.66,1.91,1.99,4.13,3.46,6.64,4.41,2.51,.96,5.83,1.54,9.94,1.75v2.45h-67.93v-2.45c4.11-.21,7.42-.8,9.94-1.75,2.51-.96,4.73-2.43,6.64-4.41,2.27-2.27,3.79-5.14,4.57-8.61,.78-3.47,1.17-8.86,1.17-16.16v-78.34c0-7.3-.39-12.69-1.17-16.16s-2.3-6.34-4.57-8.61c-1.91-2.06-4.15-3.54-6.7-4.47-2.55-.92-5.85-1.49-9.89-1.7v-2.45h67.93v2.45c-4.04,.21-7.32,.78-9.83,1.7s-4.77,2.41-6.75,4.47c-2.2,2.27-3.7,5.16-4.52,8.66-.81,3.51-1.22,8.88-1.22,16.11v37.74h0Z"/><path class="cls-1" d="M1188.76,789.15l30.61-3.83v61.23l.11,8.05c0,4.8,.28,8.32,.85,10.54s1.66,4.08,3.3,5.56c1.98,1.91,5.63,3.35,10.95,4.34v2.23h-46.99v-2.23c4.25-.56,7.3-1.35,9.14-2.38s3.33-2.77,4.47-5.24c.78-1.62,1.33-4.07,1.65-7.35,.32-3.28,.48-8.02,.48-14.23v-26.12c0-7.26-.18-12.36-.53-15.28s-1.13-5.31-2.34-7.14c-1.21-1.97-2.66-3.4-4.36-4.28s-4.15-1.43-7.34-1.64v-2.23h0Z"/><path class="cls-1" d="M1269.42,877.27v-30.08h1.7c1.98,7.37,4.45,13.25,7.42,17.65,5.44,8.01,11.81,12.01,19.09,12.01,4.45,0,8.31-1.35,11.56-4.04,3.53-2.98,5.3-7.19,5.3-12.65,0-4.47-1.27-8.36-3.82-11.69-1.41-1.77-3.2-3.4-5.36-4.89s-5.78-3.58-10.87-6.27c-8.91-4.75-14.85-8.72-17.82-11.91-4.24-4.53-6.36-9.78-6.36-15.73,0-6.38,2.13-11.87,6.38-16.48,4.89-5.24,11.37-7.87,19.45-7.87,3.62,0,6.98,.64,10.1,1.92l3.62,1.59c1.13,.43,2.13,.64,2.98,.64,1.35,0,2.62-1.06,3.83-3.19h2.13l1.17,24.13h-2.23c-.78-3.4-1.61-6.13-2.49-8.19s-2.14-4.04-3.76-5.95c-2.19-2.69-4.73-4.8-7.63-6.33-2.9-1.52-5.76-2.29-8.59-2.29-3.96,0-7.33,1.44-10.12,4.31s-4.19,6.4-4.19,10.58c0,3.47,1.25,6.61,3.77,9.41,2.51,2.8,6.38,5.37,11.61,7.71l11.24,5.1c6.72,3.05,11.74,6.84,15.06,11.37,3.32,4.54,4.99,9.89,4.99,16.05,0,7.44-2.41,13.61-7.23,18.5-5.53,5.67-12.62,8.5-21.26,8.5-4.68,0-9.43-.92-14.24-2.76-3.12-1.21-5-1.9-5.63-2.07-.64-.18-1.45-.27-2.45-.27-2.48,0-4.36,1.06-5.63,3.19h-1.72Z"/><path class="cls-1" d="M1529.75,866.96l1.81,1.06c-2.55,7.44-8.4,11.16-17.54,11.16-5.04,0-9.23-1.24-12.56-3.72-2.2-1.63-4.47-4.47-6.81-8.5-4.76,4.25-8.34,7.05-10.75,8.4-4.62,2.55-9.97,3.83-16.08,3.83-7.81,0-14-1.88-18.58-5.63-4.58-3.76-6.87-8.82-6.87-15.2,0-5.88,1.88-10.81,5.63-14.77,2.13-2.2,4.57-3.95,7.34-5.26,2.76-1.31,6.77-2.64,12.01-3.99,6.17-1.56,10.72-2.87,13.66-3.93,2.94-1.06,5.4-2.34,7.39-3.83,2.27-1.63,3.83-3.54,4.68-5.74,.85-2.2,1.28-5.24,1.28-9.14,0-8.29-1.56-14.35-4.68-18.18-1.42-1.77-3.24-3.19-5.48-4.25s-4.55-1.6-6.96-1.6c-2.91,0-5.49,.74-7.76,2.23s-3.97,3.54-5.1,6.17l-2.66,6.17c-1.42,3.33-3.97,5-7.65,5-2.41,0-4.43-.8-6.06-2.39s-2.44-3.6-2.44-6.01c0-3.61,2.55-6.66,7.67-9.14,2.77-1.28,6.19-2.32,10.27-3.14,4.08-.81,8.07-1.22,11.98-1.22,4.4,0,8.98,.57,13.74,1.7s8.73,2.59,11.93,4.36c4.61,2.62,7.49,6.02,8.62,10.2,.57,2.13,.85,5.7,.85,10.74v39.33c0,6.66,.28,11.2,.85,13.61,1.21,5.03,4.11,7.55,8.72,7.55,2.2,0,3.92-.39,5.16-1.17,1.24-.78,2.71-2.34,4.41-4.68l-.02-.02Zm-35.19-41.88c-3.81,3.19-8.02,5.99-12.61,8.4-5.16,2.76-8.72,4.85-10.7,6.27-1.98,1.42-3.78,3.12-5.4,5.1-3.32,4.11-4.98,8.89-4.98,14.35,0,4.68,1.29,8.54,3.87,11.59,2.58,3.05,5.85,4.57,9.8,4.57,3.46,0,6.73-1.08,9.8-3.24s5.39-5.05,6.94-8.66c2.19-4.75,3.29-11.62,3.29-20.62v-17.75h-.01Z"/><path class="cls-1" d="M1433.06,866.96l1.81,1.06c-2.55,7.44-8.4,11.16-17.54,11.16-5.04,0-9.23-1.24-12.56-3.72-2.2-1.63-4.47-4.47-6.81-8.5-4.76,4.25-8.34,7.05-10.75,8.4-4.62,2.55-9.97,3.83-16.08,3.83-7.81,0-14-1.88-18.58-5.63-4.58-3.76-6.87-8.82-6.87-15.2,0-5.88,1.88-10.81,5.63-14.77,2.13-2.2,4.57-3.95,7.34-5.26,2.76-1.31,6.77-2.64,12.01-3.99,6.17-1.56,10.72-2.87,13.66-3.93,2.94-1.06,5.4-2.34,7.39-3.83,2.27-1.63,3.83-3.54,4.68-5.74,.85-2.2,1.28-5.24,1.28-9.14,0-8.29-1.56-14.35-4.68-18.18-1.42-1.77-3.24-3.19-5.48-4.25s-4.55-1.6-6.96-1.6c-2.91,0-5.49,.74-7.76,2.23s-3.97,3.54-5.1,6.17l-2.66,6.17c-1.42,3.33-3.97,5-7.65,5-2.41,0-4.43-.8-6.06-2.39s-2.44-3.6-2.44-6.01c0-3.61,2.55-6.66,7.67-9.14,2.77-1.28,6.19-2.32,10.27-3.14,4.08-.81,8.07-1.22,11.98-1.22,4.4,0,8.98,.57,13.74,1.7s8.73,2.59,11.93,4.36c4.61,2.62,7.49,6.02,8.62,10.2,.57,2.13,.85,5.7,.85,10.74v39.33c0,6.66,.28,11.2,.85,13.61,1.21,5.03,4.11,7.55,8.72,7.55,2.2,0,3.92-.39,5.16-1.17,1.24-.78,2.71-2.34,4.41-4.68l-.02-.02Zm-35.19-41.88c-3.81,3.19-8.02,5.99-12.61,8.4-5.16,2.76-8.72,4.85-10.7,6.27-1.98,1.42-3.78,3.12-5.4,5.1-3.32,4.11-4.98,8.89-4.98,14.35,0,4.68,1.29,8.54,3.87,11.59,2.58,3.05,5.85,4.57,9.8,4.57,3.46,0,6.73-1.08,9.8-3.24s5.39-5.05,6.94-8.66c2.19-4.75,3.29-11.62,3.29-20.62v-17.75h-.01Z"/><path class="cls-1" d="M1566.83,785.32c1,4.13,1.5,7.98,1.5,11.54v1.71c8.79-8.83,19.24-13.25,31.36-13.25,9.07,0,16.37,2.13,21.9,6.37,5.46,4.18,8.19,10.12,8.19,17.84v45.02c0,4.81,.28,8.34,.85,10.56,.57,2.23,1.66,4.09,3.29,5.57,1.98,1.91,5.63,3.36,10.95,4.35v2.23h-46.99v-2.23c4.25-.56,7.3-1.36,9.14-2.39s3.33-2.78,4.46-5.25c.78-1.63,1.33-4.09,1.65-7.38,.32-3.29,.48-8.02,.48-14.18v-22.51c0-7.71-.27-13.38-.79-16.99-.53-3.61-1.54-6.51-3.02-8.71-1.63-2.48-3.96-4.4-7-5.78s-6.4-2.07-10.07-2.07c-3.96,0-7.66,.78-11.08,2.34-3.43,1.56-6.13,3.68-8.11,6.37-2.12,2.83-3.52,6.03-4.19,9.61-.67,3.58-1.01,9.5-1.01,17.78v20.81l.11,7.86c0,4.81,.28,8.34,.85,10.57s1.66,4.09,3.3,5.57c1.98,1.91,5.63,3.36,10.95,4.35v2.23h-46.99v-2.23c4.25-.56,7.3-1.35,9.14-2.38,1.84-1.02,3.33-2.77,4.47-5.24,.78-1.62,1.33-4.07,1.65-7.35,.32-3.28,.48-8.02,.48-14.23v-26.12c0-7.26-.18-12.36-.53-15.28-.36-2.93-1.13-5.31-2.34-7.14-1.21-1.97-2.66-3.4-4.36-4.28s-4.15-1.43-7.34-1.64v-2.23l29.12-3.83h-.02Z"/><path class="cls-2" d="M877.16,14.53c13.38,20.12,38.64,31.64,62.6,28.55,9.2-1.19,19.04-4.24,27.36-.14,17.43,8.6,14.53,41.37,33.67,44.77,12.74,2.26,25.43-12,37.24-6.73,7.63,3.41,10.03,13.19,16.43,18.56,17.83,14.93,49.55-13.04,66.53,2.85,11.62,10.87,6.2,35.34,21.08,40.97,9.94,3.76,22.41-4.79,31.15,1.26,7.92,5.48,5.41,17.97,.15,26.04-5.26,8.07-12.7,15.94-12.25,25.56,15.13-.63,12.15,22.81,9.92,37.79-1.9,12.77,1.35,25.76,.75,38.66s-6.99,27.32-19.56,30.26c22.08-3.75,45.75,3.48,61.95,18.94,4.16,3.97,8.36,8.72,14.07,9.44,6.01,.76,11.47-3.21,17.26-4.99,17.99-5.55,36.89,13.22,36.03,32.02s-16.29,34.42-33.8,41.33c-17.51,6.91-36.88,6.87-55.7,6.74,3.79,21.16,18.63,38.34,28.7,57.33,10.06,18.99,14.42,44.89-.74,60.13-19.8,19.91-53.3,5.88-77.14-8.97-34.24-21.32-68.47-42.64-102.71-63.96-32.88-20.48-66.68-41.81-88.84-73.58-21.1-30.26-30.07-67.9-52.51-97.18-30.69-40.04-42.46-61.37-44-112.48-.8-26.53-.37-52.66,3.53-78.98,1.55-10.48,22.78-68.25,18.82-74.21v.02Z"/><path class="cls-5" d="M1012.82,635.3s99.48-147.95-85.93-236.49c0,0,144.51-68.74,165.3-58.34,20.8,10.4,90.45,235.91-79.38,294.83h0Z"/><path class="cls-7" d="M979.99,59.06s-60.96,274.09,45.48,21.98c0,0-41.34,26.25-45.48-21.98Z"/><path class="cls-7" d="M1124.04,113.03s-145.4,261.73,36.69,29.71c0,0-25.95,14.77-36.69-29.71Z"/><path class="cls-7" d="M1152.23,302.94s-43.76,18.62-49.5,19.58c0,0,61.86,4.35,78.76-18.39l-29.26-1.19Z"/><path class="cls-7" d="M1192.05,406.42s-40.01-50.43-68.01-60.95c0,0,71.01,75.87,80.81,91.79,0,0-14.36-21.54-12.8-30.84Z"/><path class="cls-6" d="M669.36,565.76s10.4-87.23,97.04-118.13c86.65-30.9,322.32-89.82,325.79-107.15,0,0-46.99-183.69-243.58-166.36-61.35,5.41-144.46-1.63-185.89,34.57-91.32,79.79-91.11,253.87,6.64,415.99v-58.92h0Z"/><path d="M874.89,656.99c-11.61-4.22-19.71-.29-24.66,4.09-4.94-4.37-13.04-8.31-24.66-4.09-21.04,7.65-67.85,33.59-99.48,11.48,0,0,43.76,82,124.14,5.84,80.38,76.16,124.14-5.84,124.14-5.84-31.63,22.11-78.44-3.83-99.48-11.48h0Z"/><path class="cls-5" d="M983.01,199.61s-285.85-29.23-333.67,191.75c0,0,47.83-203.7,356.69-176.89l-23.02-14.86h0Z"/><g><g><path d="M835.2,508.76s-16.62-31.31-69.82-28.54c-38.33,2-58.46,26.6-58.46,26.6,0,0,32.14-16.62,62.61-14.41,26.7,1.94,47.1,18.84,55.96,19.95,8.87,1.11,9.7-3.6,9.7-3.6Z"/><g><path class="cls-8" d="M816.68,533.3s-23.55-17.73-41.83-17.45c-18.29,.28-42.94,13.3-42.94,13.3,0,0,23,18.01,42.94,17.45s41.83-13.3,41.83-13.3Z"/><path d="M755.38,524.35c0,8.31,8.59,15.04,19.19,15.04,10.6,0,19.19-6.73,19.19-15.04,0-8.31-16.72-8.99-19.19-9.03-3.08-.05-19.18,.72-19.18,9.03Z"/></g></g><g><path d="M867.85,508.76s16.62-31.31,69.82-28.54c38.33,2,58.46,26.6,58.46,26.6,0,0-32.14-16.62-62.61-14.41-26.7,1.94-47.1,18.84-55.96,19.95-8.87,1.11-9.7-3.6-9.7-3.6Z"/><g><path class="cls-8" d="M886.38,533.3s23.55-17.73,41.83-17.45,42.94,13.3,42.94,13.3c0,0-23,18.01-42.94,17.45-19.95-.55-41.83-13.3-41.83-13.3Z"/><path d="M947.67,524.35c0,8.31-8.59,15.04-19.19,15.04-10.6,0-19.19-6.73-19.19-15.04,0-8.31,16.72-8.99,19.19-9.03,3.08-.05,19.18,.72,19.18,9.03Z"/></g></g></g><g><path d="M869.17,635.04c3.25-8.78-.35-15.49-5.92-22.25l-1.14-1.36c-.23-.26-.52-.61-.72-.92-1.59-2.76-2.03-5.73-2.63-8.71-1.25-7.33-1.76-14.74-2.04-22.14-.53-19.59,.48-39.43,5.23-58.49-1.43,24.26-1.29,48.55,.7,72.74,.57,4.72,.78,9.83,2.55,14.21,.25,.39,1.21,1.66,1.49,2.06,5.31,7.53,9.17,16.84,2.48,24.86h0Z"/><path d="M815.84,620.29c-.68,5.3-3.55,20.64,2.4,23.12,2.66,.54,6.86-1.13,10.1-.68,5.93,.32,11.42,3.89,14.84,8.54,1.28,1.59,2.26,2.8,3.57,3.67,5.17,3.39,15.48-5.25,19.44-8.68l.87-.8,1.06,.14c3.89,.51,13.81,.95,16.02-2.42,1.58-4.82,1.2-10.12-1.58-14.47-1.97-3.31-4.67-6.28-7.33-9.23,7.15,5.15,14.06,12,12.82,21.61-.16,1.81-.35,3.85-1.67,5.21-4.54,4.39-12.9,4.37-18.81,3.95l1.93-.67c-5.75,5.36-16.44,14.37-24.66,9.96-2.29-1.16-4.16-3.59-5.43-5.26-2.08-2.76-4.14-4.87-7.03-6.1-2.95-1.38-5.95-1.66-9.25-1.28-1.97,.16-4,.54-6.07-.28-8.5-4.18-3.55-19.48-1.21-26.32h0Z"/></g><path class="cls-4" d="M654.87,898.75l-110.86,2.15-14.49-.11v.04l-159.04-1.24c-1.79,.13-3.58,.23-5.37,.3-9.79,.37-19.61,.03-29.4,.33-16.59,.49-33.16,1.24-49.74,1.89-30.44,1.2-60.88,2.42-91.32,3.61-12.17,.48-24.36,.87-36.52,1.41-2.18,.09-3.27-.51-3.84-2.73-.55-2.17-1.11-4.35-1.67-6.52-4.13-16.04-8.39-32.05-12.42-48.11-5.68-22.64-11.1-45.34-16.68-68.01-1.79-7.27-3.7-14.51-5.65-22.13,3.09-.34,5.76-.65,8.43-.91,2.27-.21,3.62-1.1,3.39-3.69-.21-2.35-.92-4.1-3.63-4.09-2.59,.02-5.19,.02-7.76,.26-2.24,.21-3.12-.68-3.77-2.8-2.23-7.31-4.49-14.64-7.19-21.78-1.54-4.08-3.59-8.09-6.14-11.61-2.94-4.06-7.59-2.96-9.1,1.86-.53,1.71-.85,3.58-.8,5.35,.19,6.73,.53,13.45,.9,20.17,.17,3.16,.53,6.32,.84,9.78-5.04,.28-9.55,.56-14.07,.76-4.59,.2-6.49,1.65-6.36,4.98,.13,3.23,2.17,4.55,6.82,4.3,2.98-.15,5.96-.37,8.93-.59,6.04-.46,5.86-.44,6.84,5.5,6.62,39.78,13.29,79.56,20,119.33,1.22,7.23,2.64,14.43,4.04,22.02-2.98,.2-5.41,.43-7.85,.51-6.64,.24-11.26,3.71-11.48,10.26-.26,8.11,.09,16.33,1.19,24.36,.89,6.54,5.43,9.41,12.35,9.33,2.98-.03,5.95-.37,8.91-.66,5.33-.52,5.25-.54,6.28,4.68,3.16,16.03,6.32,32.06,9.64,48.07,.31,1.52,1.39,3.56,2.66,4.1,8.23,3.51,16.59,6.73,24.95,9.91,12.49,4.76,24.92,9.74,37.57,14.04,31.09,10.57,62.25,20.87,93.46,31.06,3.73,1.22,7.93,1.33,11.92,1.31,1.57,0,3.92-1.43,4.5-2.82,.55-1.3-.45-3.58-1.36-5.06-.83-1.36-2.35-2.42-3.76-3.3-24.07-14.99-48.23-29.83-72.23-44.92-16.67-10.48-33.01-21.49-49.76-31.85-10.22-6.32-14.54-16.04-17.93-26.83l35.13-4.65,145.94-19.33,1.15-.16,304.35-27.77Z"/><path class="cls-3" d="M1251.8,747.45c-3.58-4.25-7.07-8.59-10.77-12.75-6.82-7.65-13.91-15.08-18.76-24.25-.42-.8-.75-1.66-1.12-2.49l.59-.49c.65,.46,1.44,.79,1.93,1.39,4.56,5.57,9.27,11.04,13.53,16.83,4.75,6.47,9.08,13.25,13.58,19.9,.4,.59,.66,1.27,.98,1.9l.05-.05h-.01Zm-13.92,7.51c-.19-.94-.29-1.91-.6-2.8-2.44-7.11-4.71-14.29-7.45-21.28-2.64-6.76-5.75-13.33-8.72-19.96-.34-.76-1.09-1.33-1.99-2.38-.16,.99-.31,1.32-.24,1.6,.39,1.67,.77,3.34,1.25,4.99,4.13,14.07,12.35,26.3,17.8,39.78l-.05,.05h0Zm45.37-54.44c.02-38.15-29.86-68.7-67.22-68.71-38.07-.01-68.52,29.94-68.53,67.4,0,38.08,30.03,68.34,67.83,68.34s67.89-30.15,67.91-67.03h.01Zm-18.97-32.79c-1.73,2.52,.39,5.67,3.58,5.8,2.4,.09,3.2,1.13,2.81,3.65l-.05-.05c1.96,1.26,2.15,2.37,.68,3.81-2.56,2.5-1.78,6.36,1.66,7.08,2.47,.51,2.11,1.91,2,3.97-8.37,.6-16.67,1.34-24.99,1.73-8.35,.39-16.54,1.47-24.48,4.06l-.06,.78c.73,.18,1.46,.49,2.2,.51,8.83,.29,17.43-1.22,26.03-3.06,6.88-1.47,13.85-2.48,20.79-3.67,.22-.04,.47,.07,.8,.13,.39,1.61,.82,2.88-1.37,3.9-2.8,1.3-2.83,5.43-.07,6.79,2.05,1.02,1.92,2.25,1.36,4.31-4.19-.67-8.36-1.26-12.5-2.03-7.56-1.41-15.07-3.12-22.66-4.34-4.1-.66-8.32-.61-12.49-.77-.65-.03-1.33,.52-2,.8,.55,.37,1.06,.9,1.67,1.08,8.28,2.53,16.81,3.36,25.43,3.81,7.42,.39,14.83,1.13,22.23,1.71,.42,2.33,.22,3.55-2.22,4-1.09,.2-2.32,1.8-2.74,3.02-.71,2.06,.72,3.53,2.56,4.77l-1.3,3.44c-7.74-3.77-15.33-7.34-22.8-11.17-7.44-3.81-15.05-7-23.23-8.69l-.48,.69c.61,.55,1.15,1.22,1.84,1.64,6.76,4.1,14.02,7.02,21.52,9.47,7.08,2.31,14.04,4.97,21.04,7.49,.6,.21,1.15,.56,1.85,.91-.54,1.65-.7,2.99-3.18,2.72-3.03-.33-4.93,3.15-3.55,5.91,.73,1.48,.46,2.87-.83,4.18-13.8-9.36-24.07-23.4-39.53-30.56l-.65,.69c.51,.66,.92,1.44,1.55,1.95,5.91,4.79,11.73,9.7,17.82,14.24,6.11,4.55,12.5,8.72,18.76,13.06,.53,.37,.98,.83,1.52,1.29-.78,1.73-1.61,2.53-3.74,1.94-3.06-.84-5.77,1.71-4.82,4.55,.91,2.74-.59,3.46-2.48,4.25l.05-.05c-1.17,1.65-2.2,2.67-4.48,1.12-2.53-1.73-5.67,.4-5.79,3.58-.09,2.4-1.14,3.2-3.65,2.8l.05-.05c-1.26,1.96-2.37,2.16-3.81,.68-2.5-2.56-6.38-1.77-7.08,1.66-.5,2.48-1.91,2.11-3.55,2.03-3.08-16.44-.56-33.51-6.25-49.49l-.74-.08c-.18,.74-.49,1.48-.51,2.22-.28,8.83,1.22,17.44,3.08,26.04,1.52,7.02,2.62,14.14,3.92,21.3-1.98,.77-3.23,1.1-4.31-1.15-1.31-2.74-5.5-2.72-6.81,.05-1.03,2.18-2.33,1.72-4.3,1.34,.7-4.29,1.31-8.47,2.08-12.63,1.42-7.56,3.13-15.07,4.33-22.66,.67-4.18,.58-8.49,.76-12.75,.02-.53-.43-1.07-.67-1.61-.4,.51-1,.95-1.18,1.53-2.57,8.28-3.39,16.81-3.85,25.43-.4,7.43-1.12,14.85-1.71,22.33-2.18,.33-3.52,.4-3.92-2.15-.45-2.89-4.16-3.92-6.43-1.99-.55,.47-.97,1.08-1.54,1.73l-3-1.16c.38-.99,.67-1.89,1.07-2.73,3.81-7.89,7.87-15.67,11.41-23.68,2.57-5.82,4.49-11.92,6.67-17.91,.23-.62,.17-1.35,.25-2.02l-.65-.32c-.56,.67-1.21,1.29-1.65,2.03-4.05,6.69-6.93,13.89-9.36,21.31-2.32,7.08-4.97,14.04-7.49,21.05-.22,.6-.55,1.16-.91,1.88-1.61-.53-3-.64-2.73-3.12,.33-3.04-3.29-5.23-5.83-3.53-2.05,1.37-3.07,.53-4.3-.88,9.41-13.78,23.37-24.13,30.63-39.54l-.71-.67c-.66,.5-1.45,.9-1.96,1.53-4.75,5.84-9.62,11.59-14.11,17.62-4.6,6.18-8.81,12.64-13.2,18.97-.37,.53-.83,.98-1.29,1.52-1.73-.77-2.54-1.59-1.94-3.74,.85-3.06-1.71-5.77-4.55-4.82-2.75,.92-3.47-.58-4.25-2.48l.05,.05-2.96-1.77,.82-.81c.51-1,1.22-1.94,1.48-3,.57-2.39-1.42-4.59-4.05-4.69-2.38-.09-3.2-1.16-2.79-3.65l.05,.05c-1.96-1.26-2.15-2.37-.68-3.81,2.56-2.5,1.78-6.36-1.67-7.08-2.47-.52-2.11-1.91-2.02-3.55,16.44-3.08,33.5-.57,49.48-6.25l.08-.74c-.73-.18-1.46-.49-2.2-.51-8.83-.3-17.43,1.21-26.02,3.06-7.09,1.53-14.27,2.64-21.49,3.95-.51-2.01-.93-3.29,1.25-4.3,2.76-1.29,2.8-5.46,.07-6.8-2.06-1.01-1.9-2.26-1.38-4.31,4.19,.67,8.37,1.26,12.51,2.03,7.56,1.41,15.06,3.12,22.65,4.34,4.1,.66,8.32,.61,12.49,.77,.65,.03,1.32-.51,1.99-.79-.55-.37-1.05-.91-1.66-1.1-8.28-2.53-16.81-3.35-25.43-3.8-7.42-.39-14.83-1.13-22.22-1.71-.4-2.34-.19-3.55,2.26-3.94,2.75-.44,3.76-4.07,1.98-6.29-.45-.56-1.07-.99-1.79-1.65l1.11-2.92c15.91,5.56,29.47,16.35,46.21,19.38l.47-.65c-.62-.55-1.17-1.22-1.86-1.64-6.76-4.09-14.02-7.01-21.52-9.46-7.07-2.31-14.03-4.97-21.04-7.49-.6-.21-1.14-.56-1.82-.9,.5-1.7,.72-2.98,3.17-2.72,3.03,.32,5.17-3.33,3.46-5.87-1.39-2.06-.42-3.04,.86-4.26,13.85,9.42,24.13,23.44,39.58,30.6l.65-.7c-.51-.66-.92-1.44-1.55-1.95-5.91-4.79-11.73-9.7-17.82-14.24-6.11-4.55-12.5-8.71-18.76-13.06-.53-.37-.98-.83-1.52-1.29,.78-1.73,1.6-2.53,3.74-1.94,3.06,.85,5.77-1.71,4.82-4.55-.91-2.74,.59-3.46,2.48-4.25l-.05,.05c1.17-1.65,2.19-2.68,4.47-1.12,2.52,1.73,5.67-.39,5.8-3.58,.09-2.4,1.13-3.2,3.65-2.81l-.05,.05c1.26-1.96,2.37-2.15,3.81-.68,2.5,2.56,6.36,1.78,7.08-1.67,.52-2.48,1.91-2.1,3.55-2.01,3.06,16.44,.56,33.51,6.25,49.48l.76,.07c.17-.74,.47-1.48,.5-2.23,.3-8.83-1.23-17.44-3.07-26.04-1.46-6.8-2.46-13.69-3.65-20.55-.05-.3,.04-.62,.08-.99,1.72-.51,2.95-.71,3.95,1.39,1.31,2.74,5.23,2.61,6.89,.01,.84-1.31,2.25-1.73,4.22-1.24-.84,5.01-1.58,10.09-2.56,15.11-1.83,9.31-4.4,18.5-4.58,28.08-.03,1.48-.11,2.96-.03,4.43,.03,.64,.43,1.25,.65,1.88,.41-.5,1.07-.95,1.18-1.51,1.18-6.1,2.61-12.17,3.3-18.32,1-8.87,1.43-17.8,2.12-26.7,.07-.89,.29-1.78,.46-2.78,1.86-.31,3.21-.39,3.61,2.17,.46,2.9,4.13,3.93,6.42,2.01,.55-.46,.98-1.08,1.55-1.72l3,1.16c-.38,.99-.66,1.89-1.07,2.74-3.81,7.89-7.87,15.67-11.41,23.68-2.57,5.82-4.49,11.92-6.67,17.91-.23,.62-.17,1.35-.25,2.02l.65,.32c.56-.67,1.21-1.29,1.65-2.03,4.05-6.69,6.92-13.89,9.36-21.31,2.35-7.15,5.03-14.19,7.59-21.27,.19-.52,.49-1,.82-1.65,1.6,.52,2.99,.63,2.72,3.11-.33,3.04,3.28,5.23,5.82,3.54,2.05-1.37,3.07-.53,4.3,.87-9.37,13.81-23.42,24.1-30.59,39.57l.68,.64c.66-.5,1.45-.9,1.96-1.53,4.79-5.91,9.7-11.73,14.25-17.82,4.55-6.11,8.72-12.5,13.07-18.76,.37-.53,.83-.99,1.29-1.52,1.74,.77,2.54,1.58,1.95,3.73-.85,3.06,1.7,5.77,4.55,4.83,2.74-.91,3.46,.59,4.25,2.48l-.05-.05c1.65,1.17,2.68,2.19,1.12,4.47l-.03-.03Zm-85.32-15.83c.82,.9,1.65,1.79,2.45,2.71,5.13,5.96,10.45,11.79,15.33,17.95,4.26,5.38,8.05,11.14,12,16.76,.42,.6,.59,1.37,.87,2.07l-.58,.48c-.65-.46-1.44-.79-1.93-1.39-4.6-5.64-9.35-11.18-13.66-17.04-4.71-6.4-8.99-13.11-13.45-19.69-.4-.59-.66-1.27-.98-1.9l-.05,.05h0Zm84.2,11.36c-.9,.82-1.79,1.65-2.71,2.45-5.96,5.13-11.79,10.45-17.95,15.33-5.38,4.26-11.14,8.05-16.76,12-.6,.42-1.37,.59-2.07,.87l-.48-.58c.46-.65,.8-1.44,1.39-1.93,5.64-4.6,11.18-9.35,17.04-13.66,6.33-4.66,12.97-8.9,19.49-13.31,.66-.44,1.4-.75,2.11-1.12l-.05-.05h-.01Zm-95.56,72.84c1.61-1.38,3.22-2.76,4.82-4.15,5.39-4.67,10.62-9.54,16.22-13.96,5.26-4.15,10.89-7.83,16.39-11.68,.6-.42,1.38-.59,2.07-.87l.48,.59c-.46,.65-.8,1.44-1.39,1.93-5.64,4.6-11.18,9.35-17.04,13.66-6.4,4.71-13.11,8.99-19.69,13.45-.59,.4-1.27,.66-1.9,.98l.05,.05h0Zm25.23-91.65c5.44,13.48,13.68,25.72,17.8,39.79,.56,1.91,.97,3.86,1.45,5.8l-.78,.4c-.56-.66-1.32-1.23-1.66-1.99-3-6.7-6.14-13.35-8.81-20.19-2.71-6.92-4.94-14.02-7.35-21.05-.31-.9-.41-1.86-.6-2.8l-.05,.05h0Zm77.79,32.67c-13.48,5.44-25.72,13.67-39.78,17.8-1.64,.48-3.32,.86-4.99,1.25-.28,.07-.61-.08-1.6-.24,1.05-.9,1.62-1.65,2.38-1.99,6.7-3,13.35-6.14,20.19-8.81,6.92-2.71,14.02-4.94,21.05-7.35,.9-.31,1.86-.41,2.8-.6l-.05-.05h0Zm-110.46,45.1c13.48-5.44,25.71-13.67,39.78-17.8,1.64-.48,3.32-.86,4.99-1.25,.28-.07,.61,.08,1.6,.24-1.05,.9-1.62,1.65-2.38,1.99-6.63,2.97-13.2,6.08-19.96,8.72-7,2.73-14.17,5.01-21.28,7.45-.9,.31-1.86,.41-2.8,.6l.05,.05h0Zm50.42-22.38c.1,2.55,2.25,4.63,4.8,4.64,2.65,0,4.85-2.21,4.82-4.86-.03-2.65-2.28-4.83-4.92-4.76-2.65,.07-4.8,2.35-4.7,4.99h0Z"/><g><path class="cls-7" d="M203.93,655.75h-65.11v-2.28c5.88-.53,9.98-1.52,12.29-2.97,4.1-2.58,6.14-6.14,6.14-10.7,0-2.71-.92-6.34-2.77-10.9l-1.68-4.16-9.51-23.39h-43.61l-5.15,13.68-2.48,6.14c-2.97,7.27-4.46,12.98-4.46,17.14,0,2.45,.54,4.73,1.63,6.84,1.09,2.12,2.56,3.83,4.41,5.15,2.58,1.78,5.88,2.84,9.91,3.17v2.28H59.13v-2.28c3.5-.2,6.57-1.06,9.22-2.58,2.64-1.52,5.22-3.97,7.73-7.33,2.11-2.71,4.18-6.2,6.19-10.46s4.67-10.66,7.98-19.18l36.27-93.46h5.65l43.11,104.16c3.24,7.86,5.81,13.48,7.73,16.85s4,5.91,6.24,7.63c1.59,1.19,3.4,2.1,5.45,2.72,2.05,.63,5.12,1.17,9.22,1.63v2.3Zm-62.23-58.47l-20.81-51.34-19.62,51.34h40.43Z"/><path class="cls-7" d="M289.36,646.13l1.69,.99c-2.38,6.94-7.83,10.41-16.35,10.41-4.7,0-8.6-1.16-11.71-3.47-2.05-1.52-4.17-4.16-6.35-7.93-4.43,3.97-7.78,6.58-10.02,7.83-4.3,2.38-9.3,3.57-14.99,3.57-7.28,0-13.05-1.75-17.32-5.25s-6.4-8.23-6.4-14.17c0-5.48,1.75-10.08,5.25-13.78,1.98-2.05,4.26-3.68,6.84-4.91,2.58-1.22,6.31-2.46,11.2-3.72,5.75-1.45,9.99-2.68,12.74-3.67,2.74-.99,5.04-2.18,6.89-3.57,2.11-1.52,3.57-3.3,4.36-5.35s1.19-4.89,1.19-8.52c0-7.73-1.45-13.38-4.36-16.95-1.32-1.65-3.02-2.97-5.1-3.96s-4.25-1.49-6.49-1.49c-2.71,0-5.12,.69-7.23,2.08-2.12,1.39-3.7,3.31-4.76,5.75l-2.48,5.75c-1.32,3.11-3.7,4.66-7.14,4.66-2.25,0-4.13-.74-5.65-2.23-1.52-1.49-2.28-3.35-2.28-5.6,0-3.37,2.38-6.21,7.15-8.52,2.58-1.19,5.77-2.16,9.58-2.92,3.8-.76,7.53-1.14,11.17-1.14,4.1,0,8.37,.53,12.81,1.59,4.43,1.06,8.14,2.41,11.12,4.06,4.3,2.45,6.98,5.62,8.04,9.51,.53,1.98,.79,5.32,.79,10.01v36.67c0,6.21,.26,10.44,.79,12.68,1.12,4.69,3.83,7.04,8.13,7.04,2.05,0,3.65-.36,4.81-1.09,1.16-.73,2.53-2.18,4.11-4.36h-.03Zm-32.8-39.05c-3.56,2.97-7.48,5.58-11.76,7.83-4.81,2.58-8.13,4.53-9.98,5.85-1.84,1.32-3.52,2.91-5.04,4.76-3.1,3.83-4.64,8.29-4.64,13.38,0,4.36,1.2,7.96,3.6,10.8,2.4,2.84,5.45,4.26,9.14,4.26,3.23,0,6.27-1.01,9.14-3.02s5.02-4.71,6.47-8.08c2.04-4.43,3.06-10.84,3.06-19.23v-16.55h0Z"/><path class="cls-7" d="M321.47,647.42l.1,18.19v6.82c0,4.48,.26,7.76,.79,9.84,.53,2.07,1.55,3.84,3.07,5.29,1.85,1.78,5.25,3.1,10.21,3.96v2.08h-43.8v-2.08c3.96-.53,6.8-1.26,8.52-2.18s3.1-2.54,4.16-4.85c.73-1.52,1.24-3.83,1.54-6.93,.3-3.1,.45-7.53,.45-13.27v-68.42c0-7.46-1.17-12.78-3.52-15.94-2.35-3.17-6.29-4.75-11.84-4.75v-2.48l28.94-4.06c.73,3.17,1.09,6.08,1.09,8.72v1.88c4.88-3.3,9.47-5.66,13.76-7.09,4.29-1.42,8.94-2.13,13.95-2.13,10.03,0,18.6,3.01,25.73,9.02,4.49,3.83,7.95,8.62,10.39,14.37s3.66,12.09,3.66,19.03-1.3,13.91-3.91,20.12c-2.61,6.21-6.32,11.33-11.13,15.36-7.52,6.41-16.46,9.61-26.82,9.61-4.95,0-9.22-.73-12.82-2.18s-7.77-4.1-12.52-7.93h0Zm0-32.9c0,9.12,.39,15.99,1.18,20.61,.79,4.62,2.2,8.36,4.24,11.2,1.84,2.51,4.26,4.53,7.26,6.04,2.99,1.52,6.04,2.28,9.13,2.28,6.97,0,13.06-3.3,18.26-9.91,3.16-3.96,5.59-8.65,7.3-14.07s2.57-11.06,2.57-16.95-.81-11.25-2.42-16.7c-1.61-5.45-3.87-10.12-6.76-14.02-4.94-6.74-10.96-10.11-18.06-10.11-3.49,0-6.78,.86-9.87,2.58-3.09,1.72-5.56,4.06-7.4,7.04-2.04,3.17-3.45,7.12-4.24,11.84-.79,4.73-1.18,11.45-1.18,20.17h-.01Z"/><path class="cls-7" d="M427.11,615.71l18.01-19.72c3.69-4.16,6.17-7.25,7.42-9.27,1.25-2.01,1.88-4.05,1.88-6.09,0-2.8-1.46-4.76-4.38-5.86-1.26-.52-3.62-.88-7.07-1.07v-2.18h38.15v2.18c-4.81,0-8.7,.82-11.67,2.46s-6.85,5.05-11.66,10.22l-3.96,4.46-10.79,11.6,25.54,28.74c2.11,2.31,3.5,3.8,4.16,4.46l4.45,4.56c3.56,3.54,6.14,5.97,7.72,7.28,1.58,1.31,3.46,2.56,5.64,3.74,2.51,1.31,5.74,2.13,9.7,2.46v2.08h-46.48v-2.08c2.8-.26,4.77-.72,5.9-1.38,1.59-.98,2.38-2.36,2.38-4.13,0-1.9-.96-3.9-2.87-5.99l-2.08-2.38-23.95-26.56-6.04,6.62v7.22l.1,7.51c0,4.48,.26,7.76,.79,9.84s1.55,3.81,3.07,5.19c1.85,1.78,5.25,3.13,10.21,4.05v2.08h-43.8v-2.08c3.96-.53,6.8-1.27,8.52-2.23,1.72-.96,3.1-2.59,4.16-4.9,.73-1.52,1.24-3.81,1.54-6.88s.45-7.5,.45-13.31v-77.68c0-6.73-.17-11.48-.5-14.25s-1.06-5.01-2.18-6.73c-1.12-1.85-2.48-3.17-4.06-3.96-1.59-.79-3.87-1.29-6.84-1.49v-2.18l28.54-3.57v99.22Z"/><path class="cls-7" d="M583.7,646.13l1.69,.99c-2.38,6.94-7.83,10.41-16.35,10.41-4.7,0-8.6-1.16-11.71-3.47-2.05-1.52-4.17-4.16-6.35-7.93-4.43,3.97-7.78,6.58-10.02,7.83-4.3,2.38-9.3,3.57-14.99,3.57-7.28,0-13.05-1.75-17.32-5.25-4.27-3.5-6.4-8.23-6.4-14.17,0-5.48,1.75-10.08,5.25-13.78,1.98-2.05,4.26-3.68,6.84-4.91,2.58-1.22,6.31-2.46,11.2-3.72,5.75-1.45,9.99-2.68,12.74-3.67s5.04-2.18,6.89-3.57c2.11-1.52,3.57-3.3,4.36-5.35s1.19-4.89,1.19-8.52c0-7.73-1.45-13.38-4.36-16.95-1.32-1.65-3.02-2.97-5.1-3.96s-4.25-1.49-6.49-1.49c-2.71,0-5.12,.69-7.23,2.08-2.12,1.39-3.7,3.31-4.76,5.75l-2.48,5.75c-1.32,3.11-3.7,4.66-7.14,4.66-2.25,0-4.13-.74-5.65-2.23s-2.28-3.35-2.28-5.6c0-3.37,2.38-6.21,7.15-8.52,2.58-1.19,5.77-2.16,9.58-2.92,3.8-.76,7.53-1.14,11.17-1.14,4.1,0,8.37,.53,12.81,1.59,4.43,1.06,8.14,2.41,11.12,4.06,4.3,2.45,6.98,5.62,8.04,9.51,.53,1.98,.79,5.32,.79,10.01v36.67c0,6.21,.26,10.44,.79,12.68,1.12,4.69,3.83,7.04,8.13,7.04,2.05,0,3.65-.36,4.81-1.09,1.16-.73,2.53-2.18,4.11-4.36h-.03Zm-32.8-39.05c-3.56,2.97-7.48,5.58-11.76,7.83-4.81,2.58-8.13,4.53-9.98,5.85-1.84,1.32-3.52,2.91-5.04,4.76-3.1,3.83-4.64,8.29-4.64,13.38,0,4.36,1.2,7.96,3.6,10.8,2.4,2.84,5.45,4.26,9.14,4.26,3.23,0,6.27-1.01,9.14-3.02s5.02-4.71,6.47-8.08c2.04-4.43,3.06-10.84,3.06-19.23v-16.55h.01Z"/></g></svg>